<svg xmlns="http://www.w3.org/2000/svg" xmlns:xlink="http://www.w3.org/1999/xlink" width="1920" height="1080" viewBox="0 0 1920 1080">
  <defs>
    <filter id="Path_41" x="308.177" y="724.261" width="190.106" height="323.477" filterUnits="userSpaceOnUse">
      <feOffset dy="3" input="SourceAlpha"/>
      <feGaussianBlur stdDeviation="3" result="blur"/>
      <feFlood flood-opacity="0.161"/>
      <feComposite operator="in" in2="blur"/>
      <feComposite in="SourceGraphic"/>
    </filter>
    <filter id="Path_41-2" x="530.885" y="645" width="190.106" height="323.477" filterUnits="userSpaceOnUse">
      <feOffset dy="3" input="SourceAlpha"/>
      <feGaussianBlur stdDeviation="3" result="blur-2"/>
      <feFlood flood-opacity="0.161"/>
      <feComposite operator="in" in2="blur-2"/>
      <feComposite in="SourceGraphic"/>
    </filter>
    <filter id="Path_41-3" x="753.593" y="645" width="190.106" height="323.477" filterUnits="userSpaceOnUse">
      <feOffset dy="3" input="SourceAlpha"/>
      <feGaussianBlur stdDeviation="3" result="blur-3"/>
      <feFlood flood-opacity="0.161"/>
      <feComposite operator="in" in2="blur-3"/>
      <feComposite in="SourceGraphic"/>
    </filter>
    <filter id="Path_41-4" x="976.301" y="645" width="190.106" height="323.477" filterUnits="userSpaceOnUse">
      <feOffset dy="3" input="SourceAlpha"/>
      <feGaussianBlur stdDeviation="3" result="blur-4"/>
      <feFlood flood-opacity="0.161"/>
      <feComposite operator="in" in2="blur-4"/>
      <feComposite in="SourceGraphic"/>
    </filter>
    <filter id="Path_41-5" x="1199.009" y="645" width="190.106" height="323.477" filterUnits="userSpaceOnUse">
      <feOffset dy="3" input="SourceAlpha"/>
      <feGaussianBlur stdDeviation="3" result="blur-5"/>
      <feFlood flood-opacity="0.161"/>
      <feComposite operator="in" in2="blur-5"/>
      <feComposite in="SourceGraphic"/>
    </filter>
    <filter id="Path_41-6" x="1421.717" y="645" width="190.106" height="323.477" filterUnits="userSpaceOnUse">
      <feOffset dy="3" input="SourceAlpha"/>
      <feGaussianBlur stdDeviation="3" result="blur-6"/>
      <feFlood flood-opacity="0.161"/>
      <feComposite operator="in" in2="blur-6"/>
      <feComposite in="SourceGraphic"/>
    </filter>
    <filter id="Path_46" x="159.755" y="896.429" width="1599.502" height="483.571" filterUnits="userSpaceOnUse">
      <feOffset dy="-6" input="SourceAlpha"/>
      <feGaussianBlur stdDeviation="26" result="blur-7"/>
      <feFlood flood-opacity="0.294"/>
      <feComposite operator="in" in2="blur-7"/>
      <feComposite in="SourceGraphic"/>
    </filter>
    <clipPath id="clip-Web_1920_7">
      <rect width="1920" height="1080"/>
    </clipPath>
  </defs>
  <g id="Web_1920_7" data-name="Web 1920 – 7" clip-path="url(#clip-Web_1920_7)">
    <rect width="1920" height="1080" fill="rgba(255,255,255,0)"/>
    <g id="Group_3" data-name="Group 3" transform="translate(-135.746 456.262)">
      <g transform="matrix(1, 0, 0, 1, 135.75, -456.26)" filter="url(#Path_41)">
        <g id="Path_41-7" data-name="Path 41" transform="translate(333.25 730.26)" fill="#fff">
          <path d="M 155.5293121337891 304.9769897460938 L -15.57715702056885 304.9769897460938 L -15.57715702056885 47.74606704711914 L 35.19664764404297 0.4999948740005493 L 104.80322265625 0.4999948740005493 L 155.5293121337891 47.74591827392578 L 155.5293121337891 304.9769897460938 Z" stroke="none"/>
          <path d="M 35.39330291748047 1 L -15.07716369628906 47.9637451171875 L -15.07716369628906 304.4769897460938 L 155.0293121337891 304.4769897460938 L 155.0293121337891 47.9635009765625 L 104.6064147949219 1 L 35.39330291748047 1 M 35 0 L 105 0 L 156.029296875 47.52828979492188 L 156.029296875 305.4769897460938 L -16.07716369628906 305.4769897460938 L -16.07716369628906 47.52828979492188 L 35 0 Z" stroke="none" fill="#707070"/>
        </g>
      </g>
      <g id="Ellipse_1" data-name="Ellipse 1" transform="translate(528 308)" fill="#ffafaf" stroke="#707070" stroke-width="1">
        <circle cx="11" cy="11" r="11" stroke="none"/>
        <circle cx="11" cy="11" r="10.5" fill="none"/>
      </g>
      <text id="Examining_Headline" data-name="Examining 
Headline" transform="translate(538.745 372.461)" font-size="24" font-family="AdobeDevanagari-Regular, Adobe Devanagari"><tspan x="-51.369" y="0">Examining </tspan><tspan x="-40.477" y="38">Headline</tspan></text>
    </g>
    <g id="Group_4" data-name="Group 4" transform="translate(86.962 377)">
      <g transform="matrix(1, 0, 0, 1, -86.96, -377)" filter="url(#Path_41-2)">
        <g id="Path_41-8" data-name="Path 41" transform="translate(555.96 651)" fill="#fff">
          <path d="M 155.5293121337891 304.9769897460938 L -15.57715702056885 304.9769897460938 L -15.57715702056885 47.74606704711914 L 35.19664764404297 0.4999948740005493 L 104.80322265625 0.4999948740005493 L 155.5293121337891 47.74591827392578 L 155.5293121337891 304.9769897460938 Z" stroke="none"/>
          <path d="M 35.39330291748047 1 L -15.07716369628906 47.9637451171875 L -15.07716369628906 304.4769897460938 L 155.0293121337891 304.4769897460938 L 155.0293121337891 47.9635009765625 L 104.6064147949219 1 L 35.39330291748047 1 M 35 0 L 105 0 L 156.029296875 47.52828979492188 L 156.029296875 305.4769897460938 L -16.07716369628906 305.4769897460938 L -16.07716369628906 47.52828979492188 L 35 0 Z" stroke="none" fill="#707070"/>
        </g>
      </g>
      <g id="Ellipse_1-2" data-name="Ellipse 1" transform="translate(528 308)" fill="#fff" stroke="#707070" stroke-width="1">
        <circle cx="11" cy="11" r="11" stroke="none"/>
        <circle cx="11" cy="11" r="10.5" fill="none"/>
      </g>
      <text id="Read_the_URL" data-name="Read the URL" transform="translate(538.976 370.539)" font-size="24" font-family="AdobeDevanagari-Regular, Adobe Devanagari"><tspan x="-62.643" y="0">Read the URL</tspan></text>
    </g>
    <g id="Group_5" data-name="Group 5" transform="translate(309.67 377)">
      <g transform="matrix(1, 0, 0, 1, -309.67, -377)" filter="url(#Path_41-3)">
        <g id="Path_41-9" data-name="Path 41" transform="translate(778.67 651)" fill="#fff">
          <path d="M 155.5293121337891 304.9769897460938 L -15.57715702056885 304.9769897460938 L -15.57715702056885 47.74606704711914 L 35.19664764404297 0.4999948740005493 L 104.80322265625 0.4999948740005493 L 155.5293121337891 47.74591827392578 L 155.5293121337891 304.9769897460938 Z" stroke="none"/>
          <path d="M 35.39330291748047 1 L -15.07716369628906 47.9637451171875 L -15.07716369628906 304.4769897460938 L 155.0293121337891 304.4769897460938 L 155.0293121337891 47.9635009765625 L 104.6064147949219 1 L 35.39330291748047 1 M 35 0 L 105 0 L 156.029296875 47.52828979492188 L 156.029296875 305.4769897460938 L -16.07716369628906 305.4769897460938 L -16.07716369628906 47.52828979492188 L 35 0 Z" stroke="none" fill="#707070"/>
        </g>
      </g>
      <g id="Ellipse_1-3" data-name="Ellipse 1" transform="translate(528 308)" fill="none" stroke="#707070" stroke-width="1">
        <circle cx="11" cy="11" r="11" stroke="none"/>
        <circle cx="11" cy="11" r="10.5" fill="none"/>
      </g>
      <text id="Investigating_Images" data-name="Investigating 
Images" transform="translate(538.976 370.539)" font-size="24" font-family="AdobeDevanagari-Regular, Adobe Devanagari"><tspan x="-59.871" y="0">Investigating </tspan><tspan x="-31.617" y="38">Images</tspan></text>
    </g>
    <g id="Group_6" data-name="Group 6" transform="translate(532.378 377)">
      <g transform="matrix(1, 0, 0, 1, -532.38, -377)" filter="url(#Path_41-4)">
        <g id="Path_41-10" data-name="Path 41" transform="translate(1001.38 651)" fill="#fff">
          <path d="M 155.5293121337891 304.9769897460938 L -15.57715702056885 304.9769897460938 L -15.57715702056885 47.74606704711914 L 35.19664764404297 0.4999948740005493 L 104.80322265625 0.4999948740005493 L 155.5293121337891 47.74591827392578 L 155.5293121337891 304.9769897460938 Z" stroke="none"/>
          <path d="M 35.39330291748047 1 L -15.07716369628906 47.9637451171875 L -15.07716369628906 304.4769897460938 L 155.0293121337891 304.4769897460938 L 155.0293121337891 47.9635009765625 L 104.6064147949219 1 L 35.39330291748047 1 M 35 0 L 105 0 L 156.029296875 47.52828979492188 L 156.029296875 305.4769897460938 L -16.07716369628906 305.4769897460938 L -16.07716369628906 47.52828979492188 L 35 0 Z" stroke="none" fill="#707070"/>
        </g>
      </g>
      <g id="Ellipse_1-4" data-name="Ellipse 1" transform="translate(528 308)" fill="none" stroke="#707070" stroke-width="1">
        <circle cx="11" cy="11" r="11" stroke="none"/>
        <circle cx="11" cy="11" r="10.5" fill="none"/>
      </g>
      <text id="Video_Tricks" data-name="Video Tricks" transform="translate(538.976 370.539)" font-size="24" font-family="AdobeDevanagari-Regular, Adobe Devanagari"><tspan x="-56.648" y="0">Video Tricks</tspan></text>
    </g>
    <g id="Group_7" data-name="Group 7" transform="translate(755.086 377)">
      <g transform="matrix(1, 0, 0, 1, -755.09, -377)" filter="url(#Path_41-5)">
        <g id="Path_41-11" data-name="Path 41" transform="translate(1224.09 651)" fill="#fff">
          <path d="M 155.5293121337891 304.9769897460938 L -15.57715702056885 304.9769897460938 L -15.57715702056885 47.74606704711914 L 35.19664764404297 0.4999948740005493 L 104.80322265625 0.4999948740005493 L 155.5293121337891 47.74591827392578 L 155.5293121337891 304.9769897460938 Z" stroke="none"/>
          <path d="M 35.39330291748047 1 L -15.07716369628906 47.9637451171875 L -15.07716369628906 304.4769897460938 L 155.0293121337891 304.4769897460938 L 155.0293121337891 47.9635009765625 L 104.6064147949219 1 L 35.39330291748047 1 M 35 0 L 105 0 L 156.029296875 47.52828979492188 L 156.029296875 305.4769897460938 L -16.07716369628906 305.4769897460938 L -16.07716369628906 47.52828979492188 L 35 0 Z" stroke="none" fill="#707070"/>
        </g>
      </g>
      <g id="Ellipse_1-5" data-name="Ellipse 1" transform="translate(528 308)" fill="none" stroke="#707070" stroke-width="1">
        <circle cx="11" cy="11" r="11" stroke="none"/>
        <circle cx="11" cy="11" r="10.5" fill="none"/>
      </g>
      <text id="Data_Charts_and_Diagrams" data-name="Data, Charts 
and Diagrams" transform="translate(538.976 370.539)" font-size="24" font-family="AdobeDevanagari-Regular, Adobe Devanagari"><tspan x="-58.553" y="0">Data, Charts </tspan><tspan x="-62.555" y="38">and Diagrams</tspan></text>
    </g>
    <g id="Group_8" data-name="Group 8" transform="translate(977.794 377)">
      <g transform="matrix(1, 0, 0, 1, -977.79, -377)" filter="url(#Path_41-6)">
        <g id="Path_41-12" data-name="Path 41" transform="translate(1446.79 651)" fill="#fff">
          <path d="M 155.5293121337891 304.9769897460938 L -15.57715702056885 304.9769897460938 L -15.57715702056885 47.74606704711914 L 35.19664764404297 0.4999948740005493 L 104.80322265625 0.4999948740005493 L 155.5293121337891 47.74591827392578 L 155.5293121337891 304.9769897460938 Z" stroke="none"/>
          <path d="M 35.39330291748047 1 L -15.07716369628906 47.9637451171875 L -15.07716369628906 304.4769897460938 L 155.0293121337891 304.4769897460938 L 155.0293121337891 47.9635009765625 L 104.6064147949219 1 L 35.39330291748047 1 M 35 0 L 105 0 L 156.029296875 47.52828979492188 L 156.029296875 305.4769897460938 L -16.07716369628906 305.4769897460938 L -16.07716369628906 47.52828979492188 L 35 0 Z" stroke="none" fill="#707070"/>
        </g>
      </g>
      <g id="Ellipse_1-6" data-name="Ellipse 1" transform="translate(528 308)" fill="none" stroke="#707070" stroke-width="1">
        <circle cx="11" cy="11" r="11" stroke="none"/>
        <circle cx="11" cy="11" r="10.5" fill="none"/>
      </g>
      <text id="Reading_through_textual_content" data-name="Reading through
textual content" transform="translate(538.976 370.539)" font-size="24" font-family="AdobeDevanagari-Regular, Adobe Devanagari"><tspan x="-75.305" y="0">Reading through</tspan><tspan x="-66.369" y="38">textual content</tspan></text>
    </g>
    <path id="Path_47" data-name="Path 47" d="M10,0H1430a10,10,0,0,1,10,10V800H0V10A10,10,0,0,1,10,0Z" transform="translate(240 811)" fill="#fff"/>
    <text id="Resources_on_Misinformation" data-name="Resources on Misinformation" transform="translate(593 919)" font-size="50" font-family="AdobeDevanagari-Regular, Adobe Devanagari"><tspan x="-276.062" y="0">Resources on Misinformation</tspan></text>
    <g transform="matrix(1, 0, 0, 1, 0, 0)" filter="url(#Path_46)">
      <path id="Path_46-2" data-name="Path 46" d="M0-43.571S-18.914-9.164,53.044,19.494s1261.355,17.551,1331.441,0S1440-43.571,1440-43.571V284H0Z" transform="translate(240 1024)" fill="#ffb158"/>
    </g>
  </g>
</svg>
