<svg width="1236" height="352" viewBox="0 0 1236 352" fill="none" xmlns="http://www.w3.org/2000/svg">
<path d="M198.336 215.007L152.309 32.8257C141.46 -10.1189 80.3578 -9.87334 69.8536 33.157L39.5 157.5L0 352H1207.95C1226.81 352 1240.22 333.651 1234.48 315.685L1223.5 281.265C1216.31 258.723 1183.21 263.007 1182 286.637C1180.94 307.213 1154.17 314.414 1142.93 297.146L1136.53 287.314C1127.51 273.451 1106.32 276.874 1102.12 292.874C1097.38 310.958 1072.14 312.111 1065.77 294.535L1044.74 236.545C1031.46 199.936 978.365 204.207 971.112 242.468L970.36 246.436C963.526 282.484 915.46 290.445 897.369 258.524L806.115 97.513C767.749 29.8185 668.91 33.8265 636.151 104.405L580.071 225.227C560.574 267.232 499.062 261.213 488.077 216.225L474.239 159.552C464.543 119.841 407.269 122.307 401.022 162.704L396.244 193.6C390.997 227.536 342.812 229.426 334.922 196.006C327.442 164.323 282.559 163.743 274.264 195.222L268.955 215.367C259.356 251.79 207.563 251.526 198.336 215.007Z" fill="#6A3EA3"/>
</svg>
