<svg width="1254" height="280" viewBox="0 0 1254 280" fill="none" xmlns="http://www.w3.org/2000/svg">
<path d="M1049.06 171.06L1096.07 31.3789C1110.16 -10.4769 1169.78 -9.22636 1182.1 33.1832L1208.63 124.505L1254 280H0L16.014 171.947C17.766 160.126 31.772 154.769 40.9653 162.404C44.4716 165.316 46.5 169.637 46.5 174.194V179.679C46.5 191.234 53.8496 201.509 64.7847 205.242L110.649 220.898C143.482 232.106 179.009 213.547 188.565 180.197L200.961 136.933C208.932 109.115 249.817 114.351 250.521 143.279C251.62 188.43 309.036 206.896 336.248 170.849L419.106 61.092C459.622 7.42301 541.411 11.2253 576.773 68.4218L647.779 183.269C671.386 221.454 728.872 214.543 742.757 171.851L757.841 125.471C770.477 86.6179 826.447 89.7359 834.689 129.752L839.437 152.803C846.451 186.851 894.167 189.275 904.596 156.113C914.318 125.197 957.811 124.481 968.545 155.061L974.331 171.545C986.785 207.022 1037.07 206.695 1049.06 171.06Z" fill="#9065C7"/>
</svg>
