<svg width="1256" height="202" viewBox="0 0 1256 202" fill="none" xmlns="http://www.w3.org/2000/svg">
<path d="M210.791 128.397L163.288 26.8873C147.245 -7.39556 98.9995 -8.78296 81.0129 24.5213L47 87.5L0 201.5H1256L1251.07 179.211C1244.95 151.54 1208.12 145.641 1193.67 170.017C1183.87 186.544 1161.62 190.4 1146.83 178.133L1129.86 164.061C1120.01 155.887 1105.1 159.111 1099.5 170.627C1092.85 184.322 1073.85 185.646 1065.36 173.007L1040.1 135.407C1022.11 108.629 981.282 113.839 970.594 144.277C961.168 171.118 927.185 179.29 906.586 159.669L803.216 61.1997C757.144 17.312 683.706 20.9709 642.224 69.2206L580.54 140.969C556.284 169.183 510.938 162.668 495.606 128.767L480.735 95.8873C466.302 63.9734 419.922 67.3598 410.277 101.032L406.424 114.483C398.015 143.842 357.47 146.547 345.234 118.567C334.104 93.1144 298.273 92.3641 286.087 117.328L280.405 128.969C266.181 158.109 224.535 157.767 210.791 128.397Z" fill="#AC82E2"/>
</svg>
